HIERARCHY
ROOT Hips
{
	OFFSET -395.419647 -566.670227 89.000702
	CHANNELS 6 Xposition Yposition Zposition Zrotation Yrotation Xrotation
	JOINT Spine
	{
		OFFSET 0.000000 2.080078 8.814247
		CHANNELS 6 Xposition Yposition Zposition Zrotation Yrotation Xrotation
		JOINT Spine1
		{
			OFFSET 0.000000 0.000000 8.844139
			CHANNELS 6 Xposition Yposition Zposition Zrotation Yrotation Xrotation
			JOINT Spine2
			{
				OFFSET 0.000000 0.000000 11.682266
				CHANNELS 6 Xposition Yposition Zposition Zrotation Yrotation Xrotation
				JOINT Spine3
				{
					OFFSET 0.000000 0.000000 11.746704
					CHANNELS 6 Xposition Yposition Zposition Zrotation Yrotation Xrotation
					JOINT Neck
					{
						OFFSET 0.000000 0.000000 17.658264
						CHANNELS 6 Xposition Yposition Zposition Zrotation Yrotation Xrotation
						JOINT Neck1
						{
							OFFSET 0.000000 0.000000 5.101517
							CHANNELS 6 Xposition Yposition Zposition Zrotation Yrotation Xrotation
							JOINT Head
							{
								OFFSET 0.000000 0.000000 5.101517
								CHANNELS 6 Xposition Yposition Zposition Zrotation Yrotation Xrotation
								JOINT HeadEnd
								{
									OFFSET 0.000000 0.000000 11.655090
									CHANNELS 6 Xposition Yposition Zposition Zrotation Yrotation Xrotation
									End Site
									{
										OFFSET 0.000000 0.000000 0.100006
									}
								}
							}
						}
					}
					JOINT RightShoulder
					{
						OFFSET -2.625397 0.000000 11.175217
						CHANNELS 6 Xposition Yposition Zposition Zrotation Yrotation Xrotation
						JOINT RightArm
						{
							OFFSET 0.000000 0.000000 10.434708
							CHANNELS 6 Xposition Yposition Zposition Zrotation Yrotation Xrotation
							JOINT RightForeArm
							{
								OFFSET 0.000000 0.000000 29.628418
								CHANNELS 6 Xposition Yposition Zposition Zrotation Yrotation Xrotation
								JOINT RightHand
								{
									OFFSET 0.000000 0.000000 22.857605
									CHANNELS 6 Xposition Yposition Zposition Zrotation Yrotation Xrotation
									JOINT RightHandThumb1
									{
										OFFSET -2.867310 -2.944275 3.959564
										CHANNELS 6 Xposition Yposition Zposition Zrotation Yrotation Xrotation
										JOINT RightHandThumb2
										{
											OFFSET 0.000000 0.000000 3.350403
											CHANNELS 6 Xposition Yposition Zposition Zrotation Yrotation Xrotation
											JOINT RightHandThumb3
											{
												OFFSET 0.000000 0.000000 3.756516
												CHANNELS 6 Xposition Yposition Zposition Zrotation Yrotation Xrotation
												JOINT RightHandThumb4
												{
													OFFSET 0.000000 0.000000 3.147339
													CHANNELS 6 Xposition Yposition Zposition Zrotation Yrotation Xrotation
													End Site
													{
														OFFSET 0.000000 0.000000 0.100006
													}
												}
											}
										}
									}
									JOINT RightHandIndex1
									{
										OFFSET -0.086761 -2.345276 10.030899
										CHANNELS 6 Xposition Yposition Zposition Zrotation Yrotation Xrotation
										JOINT RightHandIndex2
										{
											OFFSET 0.000000 0.000000 4.061096
											CHANNELS 6 Xposition Yposition Zposition Zrotation Yrotation Xrotation
											JOINT RightHandIndex3
											{
												OFFSET 0.000000 0.000000 3.248871
												CHANNELS 6 Xposition Yposition Zposition Zrotation Yrotation Xrotation
												JOINT RightHandIndex4
												{
													OFFSET 0.000000 0.000000 2.639709
													CHANNELS 6 Xposition Yposition Zposition Zrotation Yrotation Xrotation
													End Site
													{
														OFFSET 0.000000 0.000000 0.100006
													}
												}
											}
										}
									}
									JOINT RightHandMiddle1
									{
										OFFSET 0.104095 -0.006775 9.502945
										CHANNELS 6 Xposition Yposition Zposition Zrotation Yrotation Xrotation
										JOINT RightHandMiddle2
										{
											OFFSET 0.000000 0.000000 4.568726
											CHANNELS 6 Xposition Yposition Zposition Zrotation Yrotation Xrotation
											JOINT RightHandMiddle3
											{
												OFFSET 0.000000 0.000000 3.654984
												CHANNELS 6 Xposition Yposition Zposition Zrotation Yrotation Xrotation
												JOINT RightHandMiddle4
												{
													OFFSET 0.000000 0.000000 2.741241
													CHANNELS 6 Xposition Yposition Zposition Zrotation Yrotation Xrotation
													End Site
													{
														OFFSET 0.000000 0.000000 0.100006
													}
												}
											}
										}
									}
									JOINT RightHandRing1
									{
										OFFSET 0.086761 2.267456 8.921707
										CHANNELS 6 Xposition Yposition Zposition Zrotation Yrotation Xrotation
										JOINT RightHandRing2
										{
											OFFSET 0.000000 0.000000 4.061096
											CHANNELS 6 Xposition Yposition Zposition Zrotation Yrotation Xrotation
											JOINT RightHandRing3
											{
												OFFSET 0.000000 0.000000 3.654984
												CHANNELS 6 Xposition Yposition Zposition Zrotation Yrotation Xrotation
												JOINT RightHandRing4
												{
													OFFSET 0.000000 0.000000 2.741241
													CHANNELS 6 Xposition Yposition Zposition Zrotation Yrotation Xrotation
													End Site
													{
														OFFSET 0.000000 0.000000 0.100006
													}
												}
											}
										}
									}
									JOINT RightHandPinky1
									{
										OFFSET -0.173492 4.467224 7.976990
										CHANNELS 6 Xposition Yposition Zposition Zrotation Yrotation Xrotation
										JOINT RightHandPinky2
										{
											OFFSET 0.000000 0.000000 3.350403
											CHANNELS 6 Xposition Yposition Zposition Zrotation Yrotation Xrotation
											JOINT RightHandPinky3
											{
												OFFSET 0.000000 0.000000 2.842758
												CHANNELS 6 Xposition Yposition Zposition Zrotation Yrotation Xrotation
												JOINT RightHandPinky4
												{
													OFFSET 0.000000 0.000000 2.639709
													CHANNELS 6 Xposition Yposition Zposition Zrotation Yrotation Xrotation
													End Site
													{
														OFFSET 0.000000 0.000000 0.100006
													}
												}
											}
										}
									}
									JOINT RightForeArmEnd
									{
										OFFSET 0.000000 0.000000 0.000000
										CHANNELS 6 Xposition Yposition Zposition Zrotation Yrotation Xrotation
										End Site
										{
											OFFSET 0.000000 0.000000 0.100006
										}
									}
								}
								JOINT RightArmEnd
								{
									OFFSET 0.000000 0.000000 0.000000
									CHANNELS 6 Xposition Yposition Zposition Zrotation Yrotation Xrotation
									End Site
									{
										OFFSET 0.000000 0.000000 0.100006
									}
								}
							}
						}
					}
					JOINT LeftShoulder
					{
						OFFSET 2.625397 0.000000 11.175217
						CHANNELS 6 Xposition Yposition Zposition Zrotation Yrotation Xrotation
						JOINT LeftArm
						{
							OFFSET 0.000000 0.000000 10.813629
							CHANNELS 6 Xposition Yposition Zposition Zrotation Yrotation Xrotation
							JOINT LeftForeArm
							{
								OFFSET 0.000000 0.000000 28.724777
								CHANNELS 6 Xposition Yposition Zposition Zrotation Yrotation Xrotation
								JOINT LeftHand
								{
									OFFSET 0.644379 0.328857 25.716171
									CHANNELS 6 Xposition Yposition Zposition Zrotation Yrotation Xrotation
									JOINT LeftHandThumb1
									{
										OFFSET 2.867310 -2.944275 3.959564
										CHANNELS 6 Xposition Yposition Zposition Zrotation Yrotation Xrotation
										JOINT LeftHandThumb2
										{
											OFFSET 0.000000 0.000000 3.350403
											CHANNELS 6 Xposition Yposition Zposition Zrotation Yrotation Xrotation
											JOINT LeftHandThumb3
											{
												OFFSET 0.000000 0.000000 3.756516
												CHANNELS 6 Xposition Yposition Zposition Zrotation Yrotation Xrotation
												JOINT LeftHandThumb4
												{
													OFFSET 0.000000 0.000000 3.100006
													CHANNELS 6 Xposition Yposition Zposition Zrotation Yrotation Xrotation
													End Site
													{
														OFFSET 0.000000 0.000000 0.100006
													}
												}
											}
										}
									}
									JOINT LeftHandIndex1
									{
										OFFSET 0.086761 -2.345276 10.030899
										CHANNELS 6 Xposition Yposition Zposition Zrotation Yrotation Xrotation
										JOINT LeftHandIndex2
										{
											OFFSET 0.000000 0.000000 4.061096
											CHANNELS 6 Xposition Yposition Zposition Zrotation Yrotation Xrotation
											JOINT LeftHandIndex3
											{
												OFFSET 0.000000 0.000000 3.248871
												CHANNELS 6 Xposition Yposition Zposition Zrotation Yrotation Xrotation
												JOINT LeftHandIndex4
												{
													OFFSET 0.000000 0.000000 2.639709
													CHANNELS 6 Xposition Yposition Zposition Zrotation Yrotation Xrotation
													End Site
													{
														OFFSET 0.000000 0.000000 0.100006
													}
												}
											}
										}
									}
									JOINT LeftHandMiddle1
									{
										OFFSET -0.104095 -0.006775 9.502945
										CHANNELS 6 Xposition Yposition Zposition Zrotation Yrotation Xrotation
										JOINT LeftHandMiddle2
										{
											OFFSET 0.000000 0.000000 4.568726
											CHANNELS 6 Xposition Yposition Zposition Zrotation Yrotation Xrotation
											JOINT LeftHandMiddle3
											{
												OFFSET 0.000000 0.000000 3.654984
												CHANNELS 6 Xposition Yposition Zposition Zrotation Yrotation Xrotation
												JOINT LeftHandMiddle4
												{
													OFFSET 0.000000 0.000000 2.741241
													CHANNELS 6 Xposition Yposition Zposition Zrotation Yrotation Xrotation
													End Site
													{
														OFFSET 0.000000 0.000000 0.100006
													}
												}
											}
										}
									}
									JOINT LeftHandRing1
									{
										OFFSET -0.086761 2.267456 8.921707
										CHANNELS 6 Xposition Yposition Zposition Zrotation Yrotation Xrotation
										JOINT LeftHandRing2
										{
											OFFSET 0.000000 0.000000 4.061096
											CHANNELS 6 Xposition Yposition Zposition Zrotation Yrotation Xrotation
											JOINT LeftHandRing3
											{
												OFFSET 0.000000 0.000000 3.654984
												CHANNELS 6 Xposition Yposition Zposition Zrotation Yrotation Xrotation
												JOINT LeftHandRing4
												{
													OFFSET 0.000000 0.000000 2.741241
													CHANNELS 6 Xposition Yposition Zposition Zrotation Yrotation Xrotation
													End Site
													{
														OFFSET 0.000000 0.000000 0.100006
													}
												}
											}
										}
									}
									JOINT LeftHandPinky1
									{
										OFFSET 0.173492 4.467224 7.976990
										CHANNELS 6 Xposition Yposition Zposition Zrotation Yrotation Xrotation
										JOINT LeftHandPinky2
										{
											OFFSET 0.000000 0.000000 3.350403
											CHANNELS 6 Xposition Yposition Zposition Zrotation Yrotation Xrotation
											JOINT LeftHandPinky3
											{
												OFFSET 0.000000 0.000000 2.842758
												CHANNELS 6 Xposition Yposition Zposition Zrotation Yrotation Xrotation
												JOINT LeftHandPinky4
												{
													OFFSET 0.000000 0.000000 2.639709
													CHANNELS 6 Xposition Yposition Zposition Zrotation Yrotation Xrotation
													End Site
													{
														OFFSET 0.000000 0.000000 0.100006
													}
												}
											}
										}
									}
									JOINT LeftForeArmEnd
									{
										OFFSET 0.000000 0.000000 0.000000
										CHANNELS 6 Xposition Yposition Zposition Zrotation Yrotation Xrotation
										End Site
										{
											OFFSET 0.000000 0.000000 0.100006
										}
									}
								}
								JOINT LeftArmEnd
								{
									OFFSET 0.000000 0.000000 0.000000
									CHANNELS 6 Xposition Yposition Zposition Zrotation Yrotation Xrotation
									End Site
									{
										OFFSET 0.000000 0.000000 0.100006
									}
								}
							}
						}
					}
				}
			}
		}
	}
	JOINT RightUpLeg
	{
		OFFSET -11.289948 0.000000 0.000000
		CHANNELS 6 Xposition Yposition Zposition Zrotation Yrotation Xrotation
		JOINT RightLeg
		{
			OFFSET 0.000000 0.000000 -38.200329
			CHANNELS 6 Xposition Yposition Zposition Zrotation Yrotation Xrotation
			JOINT RightFoot
			{
				OFFSET 0.000000 0.000000 -39.900856
				CHANNELS 6 Xposition Yposition Zposition Zrotation Yrotation Xrotation
				JOINT RightToeBase
				{
					OFFSET 0.000000 -15.261658 0.000001
					CHANNELS 6 Xposition Yposition Zposition Zrotation Yrotation Xrotation
					JOINT RightToeBaseEnd
					{
						OFFSET 0.000000 -7.370728 0.000001
						CHANNELS 6 Xposition Yposition Zposition Zrotation Yrotation Xrotation
						End Site
						{
							OFFSET 0.000000 0.000000 0.100000
						}
					}
				}
				JOINT RightLegEnd
				{
					OFFSET 0.000000 0.000000 0.000000
					CHANNELS 6 Xposition Yposition Zposition Zrotation Yrotation Xrotation
					End Site
					{
						OFFSET 0.000000 0.000000 0.100000
					}
				}
			}
			JOINT RightUpLegEnd
			{
				OFFSET 0.000000 0.000000 0.000000
				CHANNELS 6 Xposition Yposition Zposition Zrotation Yrotation Xrotation
				End Site
				{
					OFFSET 0.000000 0.000000 0.099998
				}
			}
		}
	}
	JOINT LeftUpLeg
	{
		OFFSET 11.315674 0.000000 0.000000
		CHANNELS 6 Xposition Yposition Zposition Zrotation Yrotation Xrotation
		JOINT LeftLeg
		{
			OFFSET 0.000000 0.000000 -38.200329
			CHANNELS 6 Xposition Yposition Zposition Zrotation Yrotation Xrotation
			JOINT LeftFoot
			{
				OFFSET 0.000000 0.000000 -39.900856
				CHANNELS 6 Xposition Yposition Zposition Zrotation Yrotation Xrotation
				JOINT LeftToeBase
				{
					OFFSET 0.000000 -15.261658 0.000001
					CHANNELS 6 Xposition Yposition Zposition Zrotation Yrotation Xrotation
					JOINT LeftToeBaseEnd
					{
						OFFSET 0.000000 -7.539978 0.000001
						CHANNELS 6 Xposition Yposition Zposition Zrotation Yrotation Xrotation
						End Site
						{
							OFFSET 0.000000 0.000000 0.100000
						}
					}
				}
				JOINT LeftLegEnd
				{
					OFFSET 0.000000 0.000000 0.000000
					CHANNELS 6 Xposition Yposition Zposition Zrotation Yrotation Xrotation
					End Site
					{
						OFFSET 0.000000 0.000000 0.100000
					}
				}
			}
			JOINT LeftUpLegEnd
			{
				OFFSET 0.000000 0.000000 0.000000
				CHANNELS 6 Xposition Yposition Zposition Zrotation Yrotation Xrotation
				End Site
				{
					OFFSET 0.000000 0.000000 0.099998
				}
			}
		}
	}
}
MOTION
Frames: 2
Frame Time: 0.016667
18.727020 -26.685120 87.072113 4.056890 -4.937236 -21.312892 -0.000003 2.080091 8.814266 -0.927663 -0.536975 11.721954 0.000005 0.000061 8.844139 0.288683 0.576852 3.338831 -0.000013 -0.000021 11.682281 2.630789 5.243079 15.070578 -0.000006 -0.000009 11.746717 0.257737 3.445153 5.719992 0.000010 -0.000004 17.658283 4.560376 -0.857568 13.522910 -0.000015 -0.000021 5.101515 4.280535 -0.375269 0.741400 -0.000025 0.000065 5.101541 -1.122106 1.957498 -16.494833 -0.000012 0.000000 11.655077 -0.000000 0.000001 -0.000001 -2.625423 -0.000021 11.175205 15.490772 -95.034767 0.487863 -0.000031 -0.000011 10.434711 -56.189091 -34.172389 61.851413 0.000010 -0.000031 29.628454 14.597069 -0.024561 25.239888 -0.000069 0.000032 22.857590 20.500357 -13.237217 -1.893646 -2.867294 -2.944275 3.959579 31.510900 -18.686317 49.385317 0.000011 0.000008 3.350410 -15.831333 9.532129 -28.101531 0.000004 0.000015 3.756527 -10.488651 7.464930 -19.194990 0.000012 0.000007 3.147370 -0.000000 -0.000000 -0.000000 -0.086800 -2.345282 10.030922 -14.110154 -24.287164 10.809260 -0.000035 -0.000021 4.061102 0.083847 -18.032289 2.622317 0.000014 0.000021 3.248859 -0.416156 -18.032367 2.622305 -0.000007 0.000015 2.639714 -0.000002 0.000002 0.000002 0.104080 -0.006804 9.502975 -7.918600 -21.977686 7.355302 -0.000016 -0.000024 4.568735 0.380523 -15.900773 0.855439 -0.000002 0.000029 3.654987 -0.121256 -15.900767 0.855922 -0.000013 0.000008 2.741255 -0.000002 0.000000 -0.000003 0.086746 2.267460 8.921745 1.274168 -19.391722 5.515715 0.000012 -0.000005 4.061091 -0.901698 -13.415057 -0.835870 0.000007 -0.000009 3.654976 0.101171 -13.415337 -0.836528 0.000009 -0.000016 2.741269 0.000001 -0.000003 -0.000000 -0.173508 4.467237 7.977005 10.746950 -16.015653 2.812351 -0.000013 0.000002 3.350431 -1.812360 -10.442827 -2.053105 -0.000009 -0.000001 2.842731 0.187645 -10.442835 -2.053107 0.000012 -0.000009 2.639735 0.000001 0.000000 0.000001 -0.000019 0.000013 0.000019 -0.000003 0.000001 0.000000 0.000009 0.000002 0.000005 -0.000000 -0.000001 -0.000000 2.625425 0.000002 11.175221 -9.333790 94.146624 -0.532289 0.000008 -0.000028 10.813614 35.914651 51.101501 30.382471 -0.000042 0.000008 28.724798 -12.210056 1.017590 44.710367 0.644470 0.328902 25.716217 -49.130947 15.168228 -13.137054 2.867321 -2.944290 3.959572 -31.530250 18.328311 49.913930 -0.000011 0.000031 3.350414 15.033108 -9.283071 -26.791347 -0.000019 0.000034 3.756531 9.970027 -7.211229 -18.309560 -0.000004 0.000004 3.100032 -0.000001 0.000000 0.000002 0.086758 -2.345297 10.030922 -4.939893 22.560668 -4.017848 0.000008 -0.000011 4.061079 0.167030 16.123937 -2.329342 -0.000015 0.000014 3.248894 -0.332789 16.123775 -2.329293 0.000010 0.000001 2.639722 -0.000000 -0.000001 0.000001 -0.104088 -0.006746 9.502966 0.272005 21.816504 -0.223077 0.000003 -0.000028 4.568717 0.392252 15.476971 -0.835400 -0.000008 0.000021 3.655011 -0.105754 15.476970 -0.833896 0.000013 0.000010 2.741266 -0.000001 0.000001 0.000001 -0.086758 2.267471 8.921745 9.245604 22.919485 7.093601 -0.000007 0.000018 4.061105 -0.848339 16.616776 1.049191 -0.000018 -0.000015 3.654992 0.150351 16.616773 1.047915 -0.000013 0.000013 2.741259 -0.000001 -0.000001 0.000001 0.173485 4.467270 7.976990 18.097766 20.693429 14.125647 0.000010 -0.000008 3.350430 -1.537008 16.269080 3.249173 0.000001 0.000024 2.842754 0.463285 16.269080 3.249604 -0.000044 0.000021 2.639700 -0.000003 -0.000000 0.000002 0.000017 -0.000004 0.000011 0.000002 -0.000000 -0.000004 0.000009 0.000004 0.000014 0.000001 0.000001 -0.000001 -11.289923 0.000027 0.000023 -7.196428 19.789394 22.687180 -0.000011 0.000037 -38.200321 -1.920141 0.434540 12.739581 -0.000006 0.000026 -39.900852 -14.898873 -12.213784 14.482892 0.000001 -15.261717 0.000025 2.440589 2.390524 -15.196811 -0.000006 -7.370659 0.000002 -0.000001 0.000000 0.000000 0.000015 -0.000000 -0.000001 0.000000 0.000001 -0.000002 -0.000034 -0.000000 -0.000008 0.000000 -0.000000 0.000001 11.315670 0.000002 0.000015 -9.816433 4.283717 14.229208 -0.000001 0.000025 -38.200317 1.069029 -0.257404 13.536690 0.000014 0.000008 -39.900833 10.789354 3.361890 18.197861 0.000009 -15.261721 0.000004 -1.872440 -0.507506 -19.249997 0.000000 -7.539978 0.000000 -0.000000 -0.000000 -0.000000 -0.000002 -0.000005 0.000000 0.000001 0.000000 -0.000001 -0.000028 0.000000 -0.000003 -0.000000 0.000000 0.000000 
19.135864 -26.758972 87.043922 3.582376 -5.225238 -21.226618 -0.000012 2.080098 8.814250 -0.857137 -0.324241 11.701139 0.000007 -0.000019 8.844147 0.309296 0.626980 3.228080 0.000012 0.000004 11.682289 2.745772 5.386472 15.152660 0.000013 0.000046 11.746689 0.262616 3.452935 5.655505 -0.000007 0.000080 17.658276 4.627088 -0.933475 13.570791 0.000009 0.000013 5.101532 4.366353 -0.425275 0.744602 0.000014 -0.000005 5.101551 -1.101022 1.948343 -16.526657 -0.000003 -0.000003 11.655083 0.000000 0.000000 0.000001 -2.625408 0.000048 11.175230 15.614787 -95.110234 0.494935 -0.000038 0.000004 10.434731 -55.978970 -33.692599 61.702693 0.000006 0.000008 29.628428 14.803533 -0.029797 25.210204 -0.000008 0.000036 22.857548 21.721248 -13.630414 -2.002257 -2.867306 -2.944260 3.959534 31.510910 -18.686308 49.385300 -0.000008 0.000000 3.350403 -15.831328 9.532132 -28.101524 0.000015 0.000008 3.756538 -10.488658 7.464931 -19.194990 0.000009 0.000008 3.147312 -0.000000 -0.000000 0.000001 -0.086754 -2.345284 10.030922 -14.199796 -24.601008 10.627435 -0.000005 0.000029 4.061096 0.074155 -18.232104 2.653443 0.000007 0.000001 3.248875 -0.418883 -18.232087 2.651234 -0.000011 -0.000006 2.639702 -0.000000 0.000004 0.000002 0.104092 -0.006763 9.502968 -7.997619 -22.321002 7.126625 0.000004 -0.000003 4.568731 0.379450 -16.134717 0.867991 -0.000005 0.000021 3.655008 -0.121853 -16.134703 0.868349 -0.000004 -0.000004 2.741247 -0.000000 -0.000000 -0.000001 0.086752 2.267459 8.921715 1.198841 -19.827479 5.166994 -0.000011 -0.000009 4.061104 -0.896604 -13.743168 -0.857121 -0.000014 0.000030 3.654980 0.103293 -13.743171 -0.857102 0.000014 -0.000016 2.741242 0.000001 -0.000001 0.000001 -0.173481 4.467236 7.976984 10.685612 -16.450459 2.301801 -0.000013 -0.000027 3.350433 -1.798431 -10.817738 -2.128597 0.000003 0.000022 2.842781 0.201571 -10.817749 -2.128599 0.000009 0.000009 2.639731 -0.000001 -0.000002 0.000003 -0.000011 0.000012 0.000010 -0.000002 -0.000000 0.000000 0.000039 0.000007 -0.000007 -0.000001 0.000001 0.000001 2.625410 0.000082 11.175216 -9.464319 94.180160 -0.540885 0.000015 0.000006 10.813637 36.083729 50.406875 30.424559 -0.000015 0.000008 28.724752 -11.683869 1.028727 44.667566 0.644363 0.328903 25.716217 -48.904465 14.981511 -13.089411 2.867294 -2.944290 3.959572 -31.530250 18.328314 49.913923 -0.000042 0.000015 3.350445 15.033106 -9.283075 -26.791328 -0.000015 -0.000008 3.756535 9.970028 -7.211224 -18.309567 -0.000001 0.000001 3.100019 0.000000 -0.000001 -0.000000 0.086773 -2.345284 10.030914 -4.943882 22.458989 -4.025229 -0.000002 0.000002 4.061117 0.168441 16.054045 -2.324720 0.000024 0.000027 3.248903 -0.331282 16.054023 -2.325092 -0.000010 -0.000000 2.639713 0.000000 -0.000000 0.000002 -0.104081 -0.006760 9.502932 0.264767 21.727211 -0.264698 -0.000009 0.000007 4.568756 0.392273 15.415617 -0.834789 -0.000013 0.000012 3.654977 -0.105531 15.415442 -0.832847 0.000010 -0.000007 2.741264 0.000001 0.000001 -0.000000 -0.086784 2.267447 8.921741 9.240504 22.870600 7.063421 -0.000009 -0.000012 4.061087 -0.848232 16.580609 1.047236 0.000005 -0.000031 3.654983 0.150703 16.580617 1.045922 -0.000014 0.000001 2.741268 0.000000 -0.000001 -0.000000 0.173454 4.467224 7.976990 18.097334 20.691233 14.107417 0.000006 0.000010 3.350447 -1.536395 16.265161 3.250410 0.000010 -0.000012 2.842731 0.463779 16.265324 3.250515 0.000009 -0.000013 2.639698 0.000002 0.000001 0.000000 -0.000032 -0.000009 -0.000001 0.000002 0.000002 0.000001 -0.000025 -0.000013 0.000017 0.000003 -0.000003 0.000004 -11.289974 -0.000042 -0.000015 -6.558846 20.149290 22.237527 -0.000046 0.000048 -38.200333 -1.923491 0.458781 13.408403 -0.000004 -0.000020 -39.900848 -14.864078 -12.507031 14.427643 -0.000036 -15.261667 0.000014 2.435235 2.415102 -15.166995 -0.000011 -7.370717 0.000002 -0.000002 -0.000000 -0.000000 0.000013 0.000018 0.000001 -0.000002 -0.000000 -0.000001 -0.000010 0.000008 0.000002 -0.000001 -0.000001 -0.000001 11.315619 0.000008 -0.000004 -9.509049 4.791913 14.451610 -0.000050 -0.000035 -38.200325 1.034895 -0.241732 13.146466 -0.000019 0.000021 -39.900856 11.185697 3.152092 18.096885 -0.000004 -15.261679 -0.000001 -1.850165 -0.485285 -19.174902 -0.000002 -7.540040 0.000001 0.000000 -0.000000 0.000000 -0.000002 -0.000002 0.000001 0.000000 -0.000000 0.000002 -0.000004 -0.000005 -0.000000 0.000001 -0.000000 -0.000000 
